#!OML:ASF E:\acrobat2\Project_11_07_03\Capture day 1\Session 1\Acrobat.ASF
:FULLY-SPECIFIED
:DEGREES
1946
root 11.1529 4.15172 10.6304 -82.5439 2.91446 168.791
lowerback -13.73246957399141 -6.124694897252236 -3.384006081534653
upperback -6.822777464986904 -7.782229362040268 10.636317593334507
thorax -1.9047038121163071 -6.029574395567387 10.298831104542995
lowerneck -2.8666772688634703 -18.003785193177052 15.27058766303057
upperneck -31.341295421124318 -22.761796857036707 0.6425459918643149
head -12.313967009519363 -8.235901102860161 -2.0129110642730206
rclavicle 2.38542e-15 -1.58034e-14
rhumerus -34.96677303398339 -20.227523938769963 32.44870634291664
rradius 59.68954416836341
rwrist -27.96035558934077
rhand -26.569784793162928 -36.269204247138866
rfingers 6.105947424241543
rthumb 5.631175400326211 -68.88322982807931
lclavicle 2.38542e-15 -1.58034e-14
lhumerus -10.594195517245868 39.53867542894078 -42.1166082957389
lradius 41.375815578903556
lwrist 29.09554099322941
lhand -16.301776965574433 -30.058532622740948
lfingers 8.47452312551816
lthumb 9.548810609671795 -2.8160115404199413
rfemur 4.290909060625164 2.864650439475593 1.1718883381094365
rtibia 57.27257331462009
rfoot 9.587860079086294 -17.642006937125615
rtoes 29.82085293130453
lfemur -12.585873785159132 -9.823373789392893 0.03582946216132632
ltibia 56.38437930083249
lfoot 38.46759751503873 12.176304026994515
ltoes 4.47688
1947
root 11.1529 4.15172 10.6304 -82.5439 2.91446 168.791
lowerback -13.730297508264444 -6.087127053213616 -3.4026671309788656
upperback -6.91231995590925 -7.818837994918299 10.65985609109155
thorax -1.9526666945107725 -6.117004997798307 10.230877201549248
lowerneck -2.9086020481820576 -18.04978508612371 15.185737118817627
upperneck -31.350017890481457 -22.665670164892514 0.6066323442640505
head -12.273493503518129 -8.156569033821508 -2.0444746028204124
rclavicle 2.38542e-15 -1.58034e-14
rhumerus -36.57724601937523 -20.8724900882002 35.417948940729204
rradius 57.28654596946568
rwrist -28.035784734446707
rhand -26.529354789713427 -36.19463261339286
rfingers 6.168460935063849
rthumb 5.661013084970657 -68.89054594182919
lclavicle 2.38542e-15 -1.58034e-14
lhumerus -11.519003767896821 43.2481886841061 -42.27213975623499
lradius 42.054089712346006
lwrist 29.113474159981866
lhand -16.38877334717321 -30.1326022409593
lfingers 8.450777903221534
lthumb 9.49841811929335 -2.7530915198534656
rfemur 4.41078773460484 3.078073527674951 1.6614890582103456
rtibia 60.817240210363984
rfoot 9.433117189882571 -17.31739089307566
rtoes 30.203992350676806
lfemur -12.583131656709025 -9.547320689276622 0.29242174070360494
ltibia 57.384487120228336
lfoot 38.28723814436256 11.972442003657402
ltoes 4.47688
1948
root 11.1529 4.15172 10.6304 -82.5439 2.91446 168.791
lowerback -13.686599402305633 -6.052220617743396 -3.409498615966651
upperback -6.984461812462264 -7.8378663656368746 10.616224468981361
thorax -1.9637672270466338 -6.112182004208025 10.169867830931445
lowerneck -2.8139853893331703 -18.032168885978837 15.178841965812778
upperneck -31.334241322632245 -22.69830438316419 0.6780449962399038
head -12.230302007364624 -8.089735895078839 -2.058753363156207
rclavicle 2.38542e-15 -1.58034e-14
rhumerus -35.51547576278084 -19.885670181143183 38.80130752039487
rradius 60.02188596895749
rwrist -27.969444668486826
rhand -26.60587400016669 -36.15407254236953
rfingers 6.196397760975146
rthumb 5.565723694439233 -68.96827333185087
lclavicle 2.38542e-15 -1.58034e-14
lhumerus -12.522088079970318 42.08890268313115 -39.74115494117305
lradius 43.397664765308704
lwrist 29.07744440895376
lhand -16.35391604869977 -30.204940841531812
lfingers 8.52215762408127
lthumb 9.564762460708703 -2.8422737667516325
rfemur 3.9772557860166637 3.535739224495594 1.3565646369336861
rtibia 58.863469448416026
rfoot 9.465821818864189 -17.344028857086766
rtoes 29.70501129954716
lfemur -12.63826339008116 -9.287102584492816 0.6112841142570821
ltibia 62.35786621222438
lfoot 38.78156350960888 12.146562314110618
ltoes 4.47688
1949
root 11.1529 4.15172 10.6304 -82.5439 2.91446 168.791
lowerback -13.714215967513681 -6.013256005347807 -3.5063961835896467
upperback -6.935950610837093 -7.748102511781801 10.545825061861363
thorax -1.8796786354897188 -6.016534538419452 10.08711087101723
lowerneck -2.7324044964169163 -18.030353000163895 15.089256719971825
upperneck -31.27043190381812 -22.693473775997145 0.6304115751145082
head -12.311007642535468 -8.09719236240269 -1.9749685940603179
rclavicle 2.38542e-15 -1.58034e-14
rhumerus -36.66126442160105 -21.651243450159782 37.65945232097027
rradius 59.77137565748324
rwrist -27.96663606814103
rhand -26.514772531462697 -36.19195374321653
rfingers 6.126303929739696
rthumb 5.665619216876348 -69.06002201839648
lclavicle 2.38542e-15 -1.58034e-14
lhumerus -10.254919183438476 43.279671709721384 -40.22614562390011
lradius 40.48595078414239
lwrist 29.113900573859027
lhand -16.264182309609602 -30.140076642490424
lfingers 8.510075132320571
lthumb 9.56680725373878 -2.8565629002130195
rfemur 3.8257424656301944 3.170678477128643 1.6345743045457883
rtibia 60.24428514801528
rfoot 9.00194628297828 -17.282523628279566
rtoes 29.698504626412358
lfemur -12.5218432596181 -8.954426803506658 0.8761362089926047
ltibia 60.68009724291103
lfoot 39.14874548816462 11.929882219224199
ltoes 4.47688
